# xmcd
#
# Track frame offsets:
#	150
#	14285
#	30055
#	47680
#	64250
#	81390
#	97630
#	115340
#	130525
#	143680
#	174010
#	189730
#
# Disc length: 2769 seconds
#
# Revision: 1
# Processed by: cddbd v1.5PL3 Copyright (c) Steve Scherf et al.
# Submitted via: audiograbber 1.83.01
#
DISCID=890acf0c
DTITLE=Robin and Linda Williams - Deeper Waters
DYEAR=2004
DGENRE=Acoustic
TTITLE0=Whippoorwill
TTITLE1=October Light
TTITLE2=Clarkfield
TTITLE3=Leaving This Land
TTITLE4=Home 235
TTITLE5=Old Plank Road
TTITLE6=Used To Be
TTITLE7=I'm Just Glad You're Gone
TTITLE8=Annie
TTITLE9=I'll Remember You Love In My Prayers-Liza Jane-The Old Stillhouse 
TTITLE10=Saving Me a Place
TTITLE11=Lost Little Chlidren
EXTD=
EXTT0=
EXTT1=
EXTT2=
EXTT3=
EXTT4=
EXTT5=
EXTT6=
EXTT7=
EXTT8=
EXTT9=
EXTT10=
EXTT11=
PLAYORDER=
